<svg width="606" height="547" fill="none" xmlns="http://www.w3.org/2000/svg"><g filter="url(#filter0_d_16_277)"><rect x="18" y="14" width="570" height="511" rx="20" fill="#fff"/></g><path d="M500 152c24.301 0 44-19.699 44-44 0-24.3-19.699-44-44-44s-44 19.7-44 44c0 24.301 19.699 44 44 44z" fill="#F0F0F0"/><g clip-path="url(#clip0_16_277)"><path d="M527 207.095h-2.29v-62.767a36.312 36.312 0 00-10.65-25.688A36.371 36.371 0 00488.351 108H355.253a36.377 36.377 0 00-25.71 10.64 36.324 36.324 0 00-10.65 25.687v344.345a36.312 36.312 0 0010.65 25.688A36.371 36.371 0 00355.252 525h133.097a36.375 36.375 0 0025.71-10.64 36.315 36.315 0 0010.649-25.688V251.773h2.29l.002-44.678z" fill="#3F3D56"/><path d="M517.295 141.894v349.21a27.543 27.543 0 01-8.075 19.477 27.589 27.589 0 01-19.492 8.072H353.9a27.594 27.594 0 01-19.502-8.067 27.543 27.543 0 01-8.082-19.482v-349.21a27.545 27.545 0 018.082-19.481 27.589 27.589 0 0119.501-8.066h16.477a13.094 13.094 0 005.973 16.493 13.13 13.13 0 006.157 1.543h77.438a13.125 13.125 0 0010.867-5.794 13.088 13.088 0 001.263-12.242h17.649a27.587 27.587 0 0119.493 8.068 27.542 27.542 0 018.079 19.474v.005z" fill="#fff"/><path d="M423.262 281.6a58.338 58.338 0 01-41.238-17.047 58.238 58.238 0 01-17.097-41.189v-.051c0-.122 0-.251.007-.373.176-31.918 26.346-57.911 58.328-57.911a58.365 58.365 0 0141.25 17.069 58.263 58.263 0 0117.088 41.213 58.263 58.263 0 01-17.084 41.214 58.36 58.36 0 01-41.248 17.073h-.006v.002zm0-115.344a57.25 57.25 0 00-40.223 16.631 57.158 57.158 0 00-16.876 40.092c-.007.131-.007.235-.007.334a57.03 57.03 0 009.622 31.705 57.094 57.094 0 0025.629 21.02 57.158 57.158 0 0032.998 3.252 57.132 57.132 0 0029.246-15.614 57.025 57.025 0 0012.388-62.187 57.076 57.076 0 00-21.032-25.612 57.144 57.144 0 00-31.73-9.621h-.015zm60.322 176.623h-120.7a2.238 2.238 0 01-2.235-2.233v-29.914a2.237 2.237 0 012.235-2.233h120.7a2.238 2.238 0 012.235 2.233v29.915a2.237 2.237 0 01-2.235 2.233v-.001zm-120.7-33.487a1.343 1.343 0 00-1.341 1.34v29.915a1.34 1.34 0 001.341 1.34h120.7a1.345 1.345 0 001.341-1.34v-29.915a1.34 1.34 0 00-1.341-1.34h-120.7z" fill="#E6E6E6"/><path d="M400.211 319.436a1.565 1.565 0 000 3.127h73.761a1.57 1.57 0 001.123-.415 1.558 1.558 0 00.5-1.088 1.567 1.567 0 00-1.504-1.622l-.068-.001h-73.812v-.001zm0 9.38a1.56 1.56 0 00-1.564 1.563 1.566 1.566 0 001.564 1.564h73.761a1.571 1.571 0 001.481-.91 1.551 1.551 0 00-.273-1.716 1.582 1.582 0 00-1.089-.5l-.068-.001h-73.812zm83.373 64.088h-120.7a2.238 2.238 0 01-2.235-2.233v-29.914a2.235 2.235 0 012.235-2.233h120.7a2.238 2.238 0 012.235 2.233v29.915a2.237 2.237 0 01-2.235 2.232zm-120.7-33.487a1.343 1.343 0 00-1.341 1.34v29.915a1.34 1.34 0 001.341 1.34h120.7a1.345 1.345 0 001.341-1.34v-29.915a1.34 1.34 0 00-1.341-1.34h-120.7z" fill="#E6E6E6"/><path d="M400.211 369.459a1.565 1.565 0 000 3.127h73.761a1.567 1.567 0 001.556-1.538 1.568 1.568 0 00-1.505-1.588h-73.812v-.001zm0 9.382a1.565 1.565 0 000 3.127h73.761a1.567 1.567 0 001.556-1.538 1.568 1.568 0 00-1.505-1.588h-73.812v-.001zm83.373 64.087h-120.7a2.236 2.236 0 01-2.235-2.233v-29.914a2.235 2.235 0 012.235-2.233h120.7a2.238 2.238 0 012.235 2.233v29.915a2.237 2.237 0 01-2.235 2.233v-.001zm-120.7-33.487a1.339 1.339 0 00-1.341 1.34v29.915a1.34 1.34 0 001.341 1.34h120.7a1.34 1.34 0 001.341-1.34v-29.915a1.34 1.34 0 00-1.341-1.34h-120.7z" fill="#E6E6E6"/><path d="M400.211 419.485a1.56 1.56 0 00-1.564 1.563 1.562 1.562 0 001.564 1.563h73.761a1.551 1.551 0 001.123-.415c.151-.14.273-.307.358-.494a1.551 1.551 0 00-.273-1.716 1.582 1.582 0 00-1.089-.5l-.068-.001h-73.812zm0 9.38a1.56 1.56 0 00-1.564 1.563 1.566 1.566 0 001.564 1.563h73.761a1.551 1.551 0 001.123-.415c.151-.139.273-.307.358-.494a1.551 1.551 0 00-.273-1.716 1.582 1.582 0 00-1.089-.5l-.068-.001h-73.812z" fill="#E6E6E6"/><path d="M441.695 221.899h-17.013V204.9h-2.835v16.999h-17.013v2.832h17.013v16.999h2.835v-16.999h17.013v-2.832z" fill="#77B2D3"/><path d="M180.442 435.653s-13.911 15.222-15.898 50.299-2.65 39.048-2.65 39.048h49.681l9.269-23.823 10.601 23.821h47.03s5.299-72.801 0-74.787c-5.299-1.985-98.033-14.558-98.033-14.558z" fill="#2F2E41"/><path d="M247.011 256.628c13.17 0 23.846-10.667 23.846-23.826 0-13.158-10.676-23.825-23.846-23.825s-23.846 10.667-23.846 23.825c0 13.159 10.676 23.826 23.846 23.826zm103.004 179.69l-36.432-66.184-21.199-34.415 25.173-11.252 13.91 27.135s18.548 27.135 23.184 49.638c4.636 22.503 9.274 33.092 9.274 33.092l-13.91 1.986zm-200.711-19.196l54.317-47.652-2.646-38.386h-15.236l-4.639 19.855-43.718 57.579 11.922 8.604z" fill="#FFB8B8"/><path d="M219.521 268.211s19.673 8.241 34.344-1.836c0 0 35.87 5.809 37.857 7.793 1.988 1.984-1.987 61.548-1.987 61.548l-7.947 33.755s11.26 51.623-5.3 64.86L279.8 452.2s-73.526 5.295-102.672-12.575l5.299-17.87 13.91-56.256-8.611-78.094s6.622-17.87 31.795-19.194z" fill="#E4E4E4"/><path d="M274.832 277.145l17.222-2.645s8.612 1.324 16.56 17.87c7.949 16.546 16.561 38.386 16.561 38.386l-29.808 13.236-24.509-38.386 3.974-28.461zm-83.131 6.95l-3.974 3.309s-5.299 19.193-5.299 32.43v17.869l23.846 2.647-14.573-56.255z" fill="#E4E4E4"/><path d="M223.172 239.268s-3.242-3.497-2.914-7.875c.217-2.491.057-5-.472-7.443 0 0 1.014-7.166 2.512-11.32s.235-5.599 6.675-7.867c6.44-2.268 2.34-10.468 21.325-3.931a5.196 5.196 0 005.649 1.155c3.505-1.283 5.617 3.528 5.617 3.528s2.186-1.792 3.413.071c1.227 1.864 7.16-2.383 9.337 11.172 2.177 13.556-5.293 25.644-5.293 25.644s-1.048-21.691-13.378-22.085c-12.33-.394-26.273-5.059-28.002 4.075-1.73 9.134-4.469 14.876-4.469 14.876z" fill="#2F2E41"/><path d="M140.616 427.259c5.675 0 10.276-4.597 10.276-10.268s-4.601-10.268-10.276-10.268c-5.676 0-10.277 4.597-10.277 10.268s4.601 10.268 10.277 10.268z" fill="#FFB8B8"/><path d="M66.53 486.341l169.251-33.756-14.144-70.796-169.252 33.754 14.145 70.798z" fill="#fff"/><path d="M237.167 453.509L65.606 487.728 51 414.621l171.561-34.217 14.606 73.105zM67.454 484.958l166.943-33.295-13.684-68.491-166.942 33.296 13.683 68.49z" fill="#E4E4E4"/><path d="M121.714 463.838l-.069.029a24.229 24.229 0 01-2.273.815c-.194.059-.395.121-.596.175-.327.094-.661.177-.998.255-.144.037-.296.069-.441.1l-.087.018c-.181.039-.361.077-.542.109l-.47.082a25.015 25.015 0 01-21.123-6.313 24.97 24.97 0 01-7.921-20.307 24.953 24.953 0 013.368-10.662 24.983 24.983 0 0118.155-12.083 25.017 25.017 0 0111.145 1.003 24.953 24.953 0 00-1.83 35.224 25.005 25.005 0 0010.827 7.041 24.895 24.895 0 01-7.143 4.516l-.002-.002z" fill="#77B2D3"/><path d="M157.444 451.139a24.442 24.442 0 003.386 1.389 24.864 24.864 0 01-11.522 5.889l-.314.067a25.019 25.019 0 01-21.318-5.64 24.961 24.961 0 01-8.55-20.309 24.965 24.965 0 0110.875-19.168 25.007 25.007 0 0121.832-3.103 24.917 24.917 0 00-8.04 21.924 24.925 24.925 0 0013.651 18.951z" fill="#77B2D3"/><path d="M200.518 422.009c1.029 4.83.6 9.857-1.231 14.444a24.972 24.972 0 01-9.056 11.327 25 25 0 01-27.766.366 24.968 24.968 0 01-9.352-11.083 24.95 24.95 0 015.057-27.282 25.003 25.003 0 0138.498 3.276 24.955 24.955 0 013.85 8.952z" fill="#77B2D3"/><path d="M190.053 444.291a16.73 16.73 0 01.368 3.362 25.052 25.052 0 01-19.124 4.064 16.676 16.676 0 01-1.033-3.221c-1.223-5.746.672-11.224 4.359-13.702a7.737 7.737 0 01-4.484-2.634 7.725 7.725 0 014.325-12.517 7.739 7.739 0 018.708 4.488 7.727 7.727 0 01-2.682 9.416c4.378.765 8.34 4.998 9.563 10.744zm-32.609 6.85l.016.075c.21 1.388.305 2.791.285 4.195-2.589 1.814-5.483 2.338-8.75 3.075l-.315.067a24.917 24.917 0 01-9.976.089 2.798 2.798 0 01-.116-.291 15.98 15.98 0 01-.916-2.93c-1.223-5.745.673-11.223 4.359-13.702a7.73 7.73 0 01-6.285-7.509 7.734 7.734 0 017.929-7.804 24.921 24.921 0 003.033 14.508 24.953 24.953 0 0010.737 10.228l-.001-.001zm-31.353 7.093c.199.995.302 2.007.309 3.022a24.918 24.918 0 01-6.44 3.241c-.193.065-.393.126-.587.184-.194.059-.395.121-.596.175-.327.095-.661.178-.998.255-.069.021-.144.037-.214.052l-.314.066a17.34 17.34 0 01-.542.11l-.47.081c-.087.019-.173.031-.258.043a24.796 24.796 0 01-8.706-.143.112.112 0 01-.014-.04 2.048 2.048 0 01-.103-.252 16.054 16.054 0 01-.915-2.93c-1.223-5.745.673-11.223 4.359-13.701a7.738 7.738 0 01-4.485-2.634 7.724 7.724 0 015.6-12.677 24.927 24.927 0 003.16 14.871 24.955 24.955 0 0011.215 10.276l-.001.001z" fill="#fff"/><path d="M383.588 330.176a8.341 8.341 0 01-.169 1.683 12.52 12.52 0 01-9.778 0 8.415 8.415 0 01-.17-1.683c0-2.937 1.497-5.419 3.559-6.249a3.86 3.86 0 01-.95-6.553 3.87 3.87 0 016.241 2.226 3.86 3.86 0 01-2.292 4.327c2.063.83 3.559 3.312 3.559 6.249zm0 51.039a8.349 8.349 0 01-.169 1.683 12.538 12.538 0 01-9.778 0 8.422 8.422 0 01-.17-1.683c0-2.937 1.497-5.42 3.559-6.249a3.868 3.868 0 01-2.292-4.327 3.87 3.87 0 017.583 0 3.864 3.864 0 01-2.292 4.327c2.063.829 3.559 3.312 3.559 6.249zm0 50.023a8.349 8.349 0 01-.169 1.683 12.538 12.538 0 01-9.778 0 8.422 8.422 0 01-.17-1.683c0-2.937 1.497-5.42 3.559-6.249a3.868 3.868 0 01-2.292-4.327 3.87 3.87 0 017.583 0 3.864 3.864 0 01-2.292 4.327c2.063.829 3.559 3.312 3.559 6.249z" fill="#77B2D3"/><path d="M357.601 448.381c5.189 0 9.396-4.203 9.396-9.388 0-5.184-4.207-9.387-9.396-9.387-5.189 0-9.396 4.203-9.396 9.387 0 5.185 4.207 9.388 9.396 9.388z" fill="#FFB8B8"/></g><path d="M156.182 154.65c18.177 0 32.913-14.736 32.913-32.913 0-18.177-14.736-32.913-32.913-32.913-18.177 0-32.913 14.736-32.913 32.913 0 18.177 14.736 32.913 32.913 32.913zM64.5 198c9.113 0 16.5-7.387 16.5-16.5S73.613 165 64.5 165 48 172.387 48 181.5 55.387 198 64.5 198z" fill="#F0F0F0"/><path d="M142.068 115.361l-14.694-14.508a7.686 7.686 0 00-5.44-2.233h-.052a7.688 7.688 0 00-5.46 2.298 18.066 18.066 0 00.162 25.556c.893.888 1.88 1.678 2.942 2.355a17.865 17.865 0 009.752 2.859h.109a17.97 17.97 0 0012.746-5.369 7.76 7.76 0 00-.065-10.958zm-.851 10.048a16.843 16.843 0 01-21.142 2.246 17.332 17.332 0 01-2.588-2.098 16.777 16.777 0 01-.148-23.729 6.388 6.388 0 014.556-1.917h.039a6.398 6.398 0 014.53 1.859l14.694 14.514a6.455 6.455 0 01.059 9.125zM93.854 67.747L79.16 53.233A7.697 7.697 0 0073.72 51h-.046a7.71 7.71 0 00-5.466 2.304A18.12 18.12 0 0065.162 74.6l.007.007a17.785 17.785 0 002.794 3.827c.123.142.265.284.407.426a17.964 17.964 0 0012.694 5.214h.116a17.975 17.975 0 0012.745-5.376 7.743 7.743 0 00-.07-10.951zm-.851 10.048a16.686 16.686 0 01-11.83 4.989h-.11a16.78 16.78 0 01-11.932-28.57 6.458 6.458 0 019.125-.058l14.695 14.507a6.466 6.466 0 01.052 9.132z" fill="#3F3D56"/><path d="M143.008 119.922l-16.201-16.001a5.63 5.63 0 00-7.955.05 14.19 14.19 0 00-2.994 15.498 14.195 14.195 0 0023.197 4.455l3.953-4.002zM94.797 72.305l-16.2-16a5.632 5.632 0 00-7.956.05 14.196 14.196 0 004.742 23.139 14.196 14.196 0 0015.46-3.186l3.954-4.003z" fill="#77B2D3"/><path d="M125.205 129.888l-.387 1.019c-1.82-.69-3.584-1.383-5.292-2.078-30.254-12.345-44.697-26.795-54.357-54.222l-.007-.007c-.458-1.29-.903-2.611-1.336-3.962l1.02-.329c.34 1.3.84 2.552 1.484 3.73.53 1.504 1.074 2.969 1.633 4.395 9.08 23.149 22.471 36.378 48.143 47.549 1.291.562 2.614 1.119 3.969 1.672a16.853 16.853 0 005.13 2.233z" fill="#3F3D56"/><path d="M78.89 82.9l-.907.918 33.518 33.105.908-.919L78.89 82.899z" fill="#3F3D56"/><defs><clipPath id="clip0_16_277"><path fill="#fff" transform="translate(51 108)" d="M0 0h476v417H0z"/></clipPath><filter id="filter0_d_16_277" x="0" y="0" width="606" height="547" filterUnits="userSpaceOnUse" color-interpolation-filters="sRGB"><feFlood flood-opacity="0" result="BackgroundImageFix"/><feColorMatrix in="SourceAlpha" values="0 0 0 0 0 0 0 0 0 0 0 0 0 0 0 0 0 0 127 0" result="hardAlpha"/><feOffset dy="4"/><feGaussianBlur stdDeviation="9"/><feComposite in2="hardAlpha" operator="out"/><feColorMatrix values="0 0 0 0 0 0 0 0 0 0 0 0 0 0 0 0 0 0 0.08 0"/><feBlend in2="BackgroundImageFix" result="effect1_dropShadow_16_277"/><feBlend in="SourceGraphic" in2="effect1_dropShadow_16_277" result="shape"/></filter></defs></svg>