<svg width="21" height="35" viewBox="0 0 21 35" fill="none" xmlns="http://www.w3.org/2000/svg">
<path d="M1.56332 1.19216C1.08292 1.6727 0.813049 2.32436 0.813049 3.00385C0.813049 3.68333 1.08292 4.33499 1.56332 4.81553L14.2477 17.4999L1.56332 30.1843C1.09653 30.6676 0.838248 31.3149 0.844087 31.9867C0.849925 32.6586 1.11942 33.3013 1.59453 33.7764C2.06964 34.2516 2.71234 34.521 3.38422 34.5269C4.0561 34.5327 4.7034 34.2744 5.18669 33.8077L19.6828 19.3116C20.1631 18.8311 20.433 18.1794 20.433 17.4999C20.433 16.8204 20.1631 16.1688 19.6828 15.6882L5.18669 1.19216C4.70615 0.711765 4.05449 0.441895 3.375 0.441895C2.69552 0.441895 2.04385 0.711765 1.56332 1.19216Z" fill="#D1D1D1"/>
</svg>
